# xmcd
#
# Track frame offsets:
#	150
#	16712
#	30480
#	49070
#	64750
#	81037
#	97005
#	113400
#	127280
#	144132
#
# Disc length: 2152 seconds
#
# Revision: 6
# Processed by: cddbd v1.5.2PL0 Copyright (c) Steve Scherf et al.
# Submitted via: EZCDAudioConverter 6.0.5.1
#
DISCID=7708660a
DTITLE=Reba McEntire - What If It's You
DYEAR=1996
DGENRE=Country
TTITLE0=How Was I To Know
TTITLE1=The Fear Of Being Alone
TTITLE2=What If It's You
TTITLE3=I'd Rather Ride Around With You
TTITLE4=It Don't Matter
TTITLE5=State Of Grace
TTITLE6=Close To Crazy
TTITLE7=She's Callin' It Love
TTITLE8=Just Looking For Him
TTITLE9=Never Had A Reason To
EXTD=
EXTT0=
EXTT1=
EXTT2=
EXTT3=
EXTT4=
EXTT5=
EXTT6=
EXTT7=
EXTT8=
EXTT9=
PLAYORDER=
